<svg xmlns="http://www.w3.org/2000/svg" version="1.1" xmlns:xlink="http://www.w3.org/1999/xlink" xmlns:svgjs="http://svgjs.dev/svgjs" width="1500" height="1687" viewBox="0 0 1500 1687"><g transform="matrix(1,0,0,1,0.00011015625000254659,0)"><svg viewBox="0 0 320 360" data-background-color="#fafafa" preserveAspectRatio="xMidYMid meet" height="1687" width="1500" xmlns="http://www.w3.org/2000/svg" xmlns:xlink="http://www.w3.org/1999/xlink"><g id="tight-bounds" transform="matrix(1,0,0,1,0.000023499999997511622,0)"><svg viewBox="0 0 320 360" height="360" width="320"><g><svg></svg></g><g><svg viewBox="0 0 320 360" height="360" width="320"><g><path transform="translate(-74.99272,-51.79039) scale(4.65793,4.65793)" d="M20.6 59.9l0.8 1-0.4-1.3c-0.1-0.6-0.8 0.1-0.4 0.3M21.5 59.3c0.3 0.5 0.6 1 0.6 1.5 0 0.7 0.6 1 1.1 1.2-0.7-0.8-1.1-3-1.7-2.7M59.9 16.9c1.7 0 3.3-0.2 5.1 0.2 4.4 1.1 8.1 3.3 10.6 6.4l7 11.2c0.3 2.8 0.9 5.9 0.8 9.3 0.7 0 0.6-1 1.4-1.2-0.8 2-1.2 4.5-1.4 7.4-0.5-1.6 0-4 0.1-5.3-0.7 1.1-1.1 0.3-1.1-0.2 0.1-0.8-0.3-0.7-0.6-1-1.1-1-1.8-2.1-2.6-3.8 0.5-1.3 0.6-3.2-1-4.2-0.5-0.3-1.1-0.8-1.4-1.6-0.4-1.1-1.1-2.4-0.9-4.1 0.1-0.5-1.5 1.1-2.4 0.4-3.9-2.7-7.8-5.8-12.5-8.4-2.5 0-4.3-0.9-5.2-2-0.8-1-0.2-2.3 1-2.4 0.7 0 1.5-0.2 2.1 0.2 0.1-0.4 0.5-0.9 1-0.9M50 14.6l0.2 0.1c1 0.2 1.5 1.6 2.6 1.1 0 0.7 0.1 1.4-0.1 1.9-0.3 0.8-1.2 0.8-1.9 0.8-6.7-0.4-10.6 2.4-14.7 4.8-1.1 0.7-2.3 1.2-3.2 2.1-4.3 4-9 7.7-10.1 15.1l-0.9 8.2c-0.1 0.9-1.1 1.8-0.9 2.9l0.7 4.9c-0.7-0.7-1.1 0.2-0.9 0.6 0.1 0.3 0.5 1.3 1.1 0.4 0.8 1.5 1.6 4.4 2.7 5.7 3.4 4 7.8 7.6 11.4 11.2 0.9-0.2 1.6-0.2 1.8-0.8 0.3 0.6-0.3 1.2-0.8 1.3 1.6 1 3.4 1.9 5.8 2.1 3.1 0.2 6 0.7 8.7 1.4 1.4-0.4 2.8-0.6 4.3-0.7 0.5 0 0.8-0.8 1.4-1l0.1-1c0.6 0.9 0.5-0.3 0.1-0.9 0.7 0.6 0.9 1.1 1.2 1.5 0-0.3 0.8-1.4 0.8-0.1l0.2-1.3c0.3-0.2 0.4 1.1 0.7 0.2 0.3-0.9 0.9-0.2 1.5-0.5-0.2 0.4-0.1 1.2 0.6 0.7l0.8-0.7c0.5 1.2 1.3 0.7 1.7 0.5 4.4-2.8 8.8-6.1 13-9.4l-0.1 1.3 0.5-1.6c0.5 0.5 0.9 0.1 1.1-0.2 0.6-1 1.4-2 2.7-2.9-1.6 4.3-3.5 7.7-5.9 10.5l-1 1.2c0 0.7-0.2 1.6-1 1.7-0.4 0.1-1.2-0.2-1.8 0.4-0.3 0.4 0.7 1.2-0.1 0.6-0.7-0.5-1.4 0-2.2 0.2-0.6 0.2 0.4 0.8 0.6 1.2 0.2 0.4 0.4 0.8 0.3 1.3l-1.1-1.2c-1.3 0.7-2.1 2-3.2 3-0.5 0.4-0.3 1.1-0.3 1.7-0.7 0-1.5-0.2-1.9 0.2-0.3 0.4-0.2 1-0.2 1.6-1-0.1-1.1-1.6-2-1.3-0.9 0.2-1.9 0.3-2.7 0.8 0.6 1.2-1 0.5-0.8 0.7-1.5-0.9-2.8-1.6-4.4-1-3.4-1.1-7.6-0.6-10.7-0.2 0-0.5 0.1-1-0.1-1.1-0.2 0.5-0.8 0.3-0.7 0.3-1.9-1.3-3.8-2.1-5.8-3.2-1.8 0.2-3.5-0.7-4-1.2-1.4-1.3-3-0.6-4.3-0.9-2.8-0.7-3.8-3.6-4.1-5.6-0.2-1-1-1.4-1.3-1.3-1.3-4.2-3.3-8-4.9-11.9-0.4-1-0.3-2-0.3-3.1 0.5 0.2 1 0.1 0.9-0.6-0.5-3.3-1.7-5.8-3-8.2 0.7-3.4 0.8-7.4 2.4-10.4 1.4-2.7 4-4.1 5.8-6.4 0.6-0.8 0.6-1.9 1.2-2.6 2-2 4-4.1 6.2-5.9 1-0.8 2.2 0 3.7-0.3 0.5-1.8 2.5-3.4 4.4-2.9 0.8 0.2 2.4-1.9 2.9-2.1 0.8-0.3 0.4 0.8 0.4 1.5 1.9-1.5 4.5-2.3 6.9-3.2" fill="#130912" fill-rule="nonzero" stroke="none" stroke-width="1" stroke-linecap="butt" stroke-linejoin="miter" stroke-miterlimit="10" stroke-dasharray="" stroke-dashoffset="0" font-family="none" font-weight="none" font-size="none" text-anchor="none" style="mix-blend-mode: normal" data-fill-palette-color="tertiary"></path></g><g transform="matrix(1,0,0,1,64,143.96639862174032)"><svg viewBox="0 0 192 72.06720275651934" height="72.06720275651934" width="192"><g><svg viewBox="0 0 192 72.06720275651934" height="72.06720275651934" width="192"><g><svg viewBox="0 0 192 72.06720275651934" height="72.06720275651934" width="192"><g transform="matrix(1,0,0,1,0,42.87777376624741)"><svg viewBox="0 0 192 29.18942899027193" height="29.18942899027193" width="192"><g id="textblocktransform"><svg viewBox="0 0 192 29.18942899027193" height="29.18942899027193" width="192" id="textblock"><g><svg viewBox="0 0 192 17.392498161314048" height="17.392498161314048" width="192"><g transform="matrix(1,0,0,1,0,0)"><svg width="192" viewBox="5 -36.35 407.86 36.95" height="17.392498161314048" data-palette-color="#130912"><path d="M18.15-34.45Q22.85-34.15 26.45-31.88 30.05-29.6 32.02-25.75 34-21.9 34-17.05L34-17.05Q34-11.9 31.85-7.9 29.7-3.9 25.8-1.7 21.9 0.5 16.9 0.5L16.9 0.5 14.05 0.5Q13.65 0.5 12.33 0.5 11 0.5 7.35 0.2L7.35 0.2 5 0 5-34.5 18.15-34.45ZM15-2.25Q22.7-2.25 26.85-6.05 31-9.85 31-16.9L31-16.9Q31-23.5 27.45-27.4 23.9-31.3 17.65-31.65L17.65-31.65 8-31.65 8-2.5 9.85-2.4Q14.8-2.25 15-2.25L15-2.25ZM50.5-25.5Q52-25.5 53.5-25.05L53.5-25.05 53.5-22.25Q52.05-22.6 50.6-22.6L50.6-22.6Q48.05-22.6 46.45-21.35L46.45-21.35Q44.85-20.1 43.6-17.8L43.6-17.8 43.6 0 40.6 0 40.6-17.5Q40.6-21.45 38.5-23.3L38.5-23.3 40.5-25.3Q41.4-24.75 42.2-23.65 43-22.55 43.35-21.2L43.35-21.2Q44.75-23.5 46.15-24.35L46.15-24.35Q47.9-25.5 50.5-25.5L50.5-25.5ZM75.55 0.4Q74.6-0.35 74.02-1.25 73.45-2.15 72.95-3.6L72.95-3.6Q71.95-1.65 69.97-0.58 68 0.5 65.2 0.5L65.2 0.5Q61.25 0.5 58.87-1.6 56.5-3.7 56.5-7.3L56.5-7.3Q56.5-11.1 59.17-13.2 61.85-15.3 66.75-15.3L66.75-15.3 72.55-15.3 72.55-17.1Q72.55-20.1 71.25-21.55 69.95-23 67.25-23L67.25-23Q65.25-23 63.15-22.28 61.05-21.55 59.4-20.3L59.4-20.3 58.05-22.5Q59.9-24.05 62.32-24.88 64.75-25.7 67.3-25.7L67.3-25.7Q71.35-25.7 73.45-23.63 75.55-21.55 75.55-17.65L75.55-17.65 75.55-7.2Q75.55-3.35 77.5-1.25L77.5-1.25 75.55 0.4ZM65.25-2.2Q68.6-2.2 70.57-4.05 72.55-5.9 72.55-8.85L72.55-8.85 72.55-12.6 67.45-12.6Q63.2-12.6 61.35-11.38 59.5-10.15 59.5-7.35L59.5-7.35Q59.5-4.85 61-3.53 62.5-2.2 65.25-2.2L65.25-2.2ZM94.09-13.5L103.84 0 100.54 0 92.29-11.25Q91.74-11.9 90.74-12.2 89.74-12.5 88.64-12.5L88.64-12.5 86.44-12.5 86.44 0 83.44 0 83.44-36.3 86.44-36.3 86.44-15.2 88.24-15.2Q89.99-15.2 91.02-15.3 92.04-15.4 92.84-15.8L92.84-15.8Q94.54-16.65 95.82-18.57 97.09-20.5 97.77-22.48 98.44-24.45 98.44-25.2L98.44-25.2 101.19-25.2Q101.14-23.5 99.97-20.88 98.79-18.25 97.14-16.1 95.49-13.95 94.09-13.5L94.09-13.5ZM109.24-11.45Q109.29-7.95 110.94-5.05 112.59-2.15 117.54-2.15L117.54-2.15Q119.69-2.15 121.52-2.7 123.34-3.25 125.49-4.5L125.49-4.5 126.79-2.4Q124.79-1.05 122.34-0.25 119.89 0.55 117.34 0.55L117.34 0.55Q112.09 0.55 109.17-2.83 106.24-6.2 106.24-11.7L106.24-11.7Q106.24-15.25 107.54-18.38 108.84-21.5 111.39-23.45 113.94-25.4 117.39-25.4L117.39-25.4Q120.29-25.4 122.67-24.03 125.04-22.65 126.42-20.28 127.79-17.9 127.79-15L127.79-15Q127.79-14.2 127.74-13.58 127.69-12.95 127.64-12.5L127.64-12.5 127.54-11.45 109.24-11.45ZM109.39-14.15L124.74-14.15Q124.79-14.5 124.79-15.15L124.79-15.15Q124.79-17.25 123.79-18.98 122.79-20.7 121.09-21.7 119.39-22.7 117.34-22.7L117.34-22.7Q114.29-22.7 112.12-20.48 109.94-18.25 109.39-14.15L109.39-14.15ZM132.14-0.65Q132.14-4.4 134.29-7.25 136.44-10.1 140.79-13.4L140.79-13.4 142.44-14.6Q144.74-16.25 146.14-17.48 147.54-18.7 148.51-20.35 149.49-22 149.49-24.05L149.49-24.05Q149.49-26.85 147.64-28.55 145.79-30.25 142.64-30.25L142.64-30.25Q139.64-30.25 137.51-28.65 135.39-27.05 134.54-24.15L134.54-24.15 132.19-25.35Q134.84-32.75 142.69-32.75L142.69-32.75Q147.29-32.75 149.79-30.43 152.29-28.1 152.29-24L152.29-24Q152.29-21.3 151.26-19.33 150.24-17.35 148.66-15.93 147.09-14.5 144.24-12.4L144.24-12.4Q142.24-11 140.64-9.65L140.64-9.65Q138.29-7.7 137.04-6.23 135.79-4.75 135.34-2.85L135.34-2.85 153.94-2.85 153.94 0 132.14 0 132.14-0.65ZM165.34-28.45Q163.49-26.85 161.66-26.05 159.84-25.25 157.69-25.25L157.69-25.25 157.04-27.85Q158.54-27.85 160.11-28.5 161.69-29.15 163.19-30.1 164.69-31.05 167.94-33.25L167.94-33.25 168.34-33.25 168.34 0 165.34 0 165.34-28.45ZM207.98 0.4Q207.03-0.35 206.46-1.25 205.88-2.15 205.38-3.6L205.38-3.6Q204.38-1.65 202.41-0.58 200.43 0.5 197.63 0.5L197.63 0.5Q193.68 0.5 191.31-1.6 188.93-3.7 188.93-7.3L188.93-7.3Q188.93-11.1 191.61-13.2 194.28-15.3 199.18-15.3L199.18-15.3 204.98-15.3 204.98-17.1Q204.98-20.1 203.68-21.55 202.38-23 199.68-23L199.68-23Q197.68-23 195.58-22.28 193.48-21.55 191.83-20.3L191.83-20.3 190.48-22.5Q192.33-24.05 194.76-24.88 197.18-25.7 199.73-25.7L199.73-25.7Q203.78-25.7 205.88-23.63 207.98-21.55 207.98-17.65L207.98-17.65 207.98-7.2Q207.98-3.35 209.93-1.25L209.93-1.25 207.98 0.4ZM197.68-2.2Q201.03-2.2 203.01-4.05 204.98-5.9 204.98-8.85L204.98-8.85 204.98-12.6 199.88-12.6Q195.63-12.6 193.78-11.38 191.93-10.15 191.93-7.35L191.93-7.35Q191.93-4.85 193.43-3.53 194.93-2.2 197.68-2.2L197.68-2.2ZM215.63-17.65Q215.63-21.5 213.58-23.55L213.58-23.55 215.48-25.4Q217.68-23.85 218.28-20.9L218.28-20.9Q219.93-23.25 221.98-24.38 224.03-25.5 226.93-25.5L226.93-25.5Q230.83-25.5 233-23.4 235.18-21.3 235.13-17.35L235.13-17.35 234.98 0 232.08 0 232.13-16.8Q232.13-22.8 226.68-22.8L226.68-22.8Q224.13-22.8 222.35-21.58 220.58-20.35 218.63-17.7L218.63-17.7 218.63 0 215.63 0 215.63-17.65ZM251.43 0.5Q248.08 0.5 245.68-1.23 243.28-2.95 242.03-5.88 240.78-8.8 240.78-12.3L240.78-12.3Q240.78-16.1 242.2-19.07 243.63-22.05 246.38-23.73 249.13-25.4 252.93-25.4L252.93-25.4Q254.08-25.4 255.85-25.28 257.63-25.15 258.98-24.95L258.98-24.95 258.98-36.35 261.73-36.35 261.73-7.2Q261.73-3.35 263.68-1.25L263.68-1.25 261.98 0.4Q260.03-1.05 259.33-3.9L259.33-3.9Q258.18-1.65 256.05-0.58 253.93 0.5 251.43 0.5L251.43 0.5ZM251.58-2.1Q253.83-2.1 255.6-3.2 257.38-4.3 258.28-6.2L258.28-6.2Q258.98-7.6 258.98-9.4L258.98-9.4 258.98-22.3Q256.23-22.65 255-22.73 253.78-22.8 252.48-22.8L252.48-22.8Q249.73-22.8 247.73-21.45 245.73-20.1 244.68-17.73 243.63-15.35 243.63-12.45L243.63-12.45Q243.63-8.1 245.73-5.1 247.83-2.1 251.58-2.1L251.58-2.1ZM302.32-17.9Q304.77-16.4 306.17-14.2 307.57-12 307.57-9.25L307.57-9.25Q307.57-6.15 305.85-3.7 304.12-1.25 300.87-0.2L300.87-0.2Q298.72 0.5 295.02 0.5L295.02 0.5Q289.72 0.5 287.52 0.25L287.52 0.25 284.92-0.05 284.92-34.75 295.92-34.75Q298.22-34.75 300.02-34.1L300.02-34.1Q302.87-33.1 304.44-30.9 306.02-28.7 306.02-25.7L306.02-25.7Q306.02-23.4 305.1-21.65 304.17-19.9 302.22-18.95L302.22-18.95Q301.72-18.7 300.72-18.4L300.72-18.4Q301.97-18.1 302.32-17.9L302.32-17.9ZM296.62-31.95L287.92-31.95 287.92-19.5 295.87-19.5Q299.07-19.5 301.05-21.15 303.02-22.8 303.02-25.9L303.02-25.9Q303.02-28.65 301.35-30.18 299.67-31.7 296.62-31.95L296.62-31.95ZM295.52-2.25Q299.77-2.25 302.17-4.05 304.57-5.85 304.57-9.25L304.57-9.25Q304.57-12.55 302.37-14.65 300.17-16.75 296.22-16.75L296.22-16.75 287.92-16.75 287.92-2.5 292.17-2.35 295.52-2.25ZM324.37 0.5Q320.82 0.5 318.04-1.15 315.27-2.8 313.72-5.75 312.17-8.7 312.17-12.45L312.17-12.45Q312.17-16.2 313.74-19.18 315.32-22.15 318.09-23.83 320.87-25.5 324.42-25.5L324.42-25.5Q327.92-25.5 330.69-23.83 333.47-22.15 335.04-19.2 336.62-16.25 336.62-12.5L336.62-12.5Q336.62-8.75 335.04-5.8 333.47-2.85 330.69-1.18 327.92 0.5 324.37 0.5L324.37 0.5ZM324.42-2.2Q328.57-2.2 331.09-5.05 333.62-7.9 333.62-12.5L333.62-12.5Q333.62-15.55 332.47-17.88 331.32-20.2 329.22-21.5 327.12-22.8 324.42-22.8L324.42-22.8Q321.67-22.8 319.57-21.5 317.47-20.2 316.32-17.82 315.17-15.45 315.17-12.45L315.17-12.45Q315.17-9.45 316.32-7.13 317.47-4.8 319.57-3.5 321.67-2.2 324.42-2.2L324.42-2.2ZM353.42 0.5Q349.87 0.5 347.09-1.15 344.31-2.8 342.77-5.75 341.22-8.7 341.22-12.45L341.22-12.45Q341.22-16.2 342.79-19.18 344.37-22.15 347.14-23.83 349.92-25.5 353.47-25.5L353.47-25.5Q356.97-25.5 359.74-23.83 362.52-22.15 364.09-19.2 365.67-16.25 365.67-12.5L365.67-12.5Q365.67-8.75 364.09-5.8 362.52-2.85 359.74-1.18 356.97 0.5 353.42 0.5L353.42 0.5ZM353.47-2.2Q357.62-2.2 360.14-5.05 362.67-7.9 362.67-12.5L362.67-12.5Q362.67-15.55 361.52-17.88 360.37-20.2 358.27-21.5 356.17-22.8 353.47-22.8L353.47-22.8Q350.72-22.8 348.62-21.5 346.52-20.2 345.37-17.82 344.22-15.45 344.22-12.45L344.22-12.45Q344.22-9.45 345.37-7.13 346.52-4.8 348.62-3.5 350.72-2.2 353.47-2.2L353.47-2.2ZM382.61-13.5L392.36 0 389.06 0 380.81-11.25Q380.26-11.9 379.26-12.2 378.26-12.5 377.16-12.5L377.16-12.5 374.96-12.5 374.96 0 371.96 0 371.96-36.3 374.96-36.3 374.96-15.2 376.76-15.2Q378.51-15.2 379.54-15.3 380.56-15.4 381.36-15.8L381.36-15.8Q383.06-16.65 384.34-18.57 385.61-20.5 386.29-22.48 386.96-24.45 386.96-25.2L386.96-25.2 389.71-25.2Q389.66-23.5 388.49-20.88 387.31-18.25 385.66-16.1 384.01-13.95 382.61-13.5L382.61-13.5ZM404.01 0.6Q398.96 0.6 394.61-3.3L394.61-3.3 396.26-5.3Q398.16-3.75 400.04-2.93 401.91-2.1 404.06-2.1L404.06-2.1Q406.76-2.1 408.29-3.38 409.81-4.65 409.81-6.85L409.81-6.85Q409.81-8.25 409.13-9.13 408.46-10 407.34-10.55 406.21-11.1 403.31-12.3L403.31-12.3Q400.66-13.4 399.21-14.2 397.76-15 396.91-16.18 396.06-17.35 396.06-19.15L396.06-19.15Q396.06-22.1 398.16-23.88 400.26-25.65 403.76-25.65L403.76-25.65Q405.56-25.65 407.34-25.15 409.11-24.65 410.36-23.7L410.36-23.7 409.11-21.55Q406.81-22.95 403.91-22.95L403.91-22.95Q401.61-22.95 400.36-22.05 399.11-21.15 399.11-19.5L399.11-19.5Q399.11-18.25 399.79-17.45 400.46-16.65 401.54-16.13 402.61-15.6 405.11-14.6L405.11-14.6Q407.96-13.45 409.54-12.53 411.11-11.6 411.99-10.28 412.86-8.95 412.86-7L412.86-7Q412.86-3.55 410.44-1.48 408.01 0.6 404.01 0.6L404.01 0.6Z" opacity="1" transform="matrix(1,0,0,1,0,0)" fill="#130912" class="wordmark-text-0" data-fill-palette-color="primary" id="text-0"></path></svg></g></svg></g><g transform="matrix(1,0,0,1,0,19.93048106300564)"><svg viewBox="0 0 192 9.258947927266291" height="9.258947927266291" width="192"><g transform="matrix(1,0,0,1,0,0)"><svg width="192" viewBox="3 -41.5 1130.03 54.5" height="9.258947927266291" data-palette-color="#130912"><path d="M6.1-28.2L4.65-28.2Q4.45-29.6 4.17-31.25 3.9-32.9 3.63-34.45 3.35-36 3.18-37.23 3-38.45 3-39.05L3-39.05Q3-40.1 3.68-40.8 4.35-41.5 5.35-41.5L5.35-41.5Q6.35-41.5 7.03-40.8 7.7-40.1 7.7-39L7.7-39Q7.7-38.4 7.53-37.15 7.35-35.9 7.1-34.4 6.85-32.9 6.58-31.25 6.3-29.6 6.1-28.2L6.1-28.2ZM13.7-28.2L12.25-28.2Q12.05-29.6 11.78-31.25 11.5-32.9 11.23-34.45 10.95-36 10.78-37.23 10.6-38.45 10.6-39.05L10.6-39.05Q10.6-40.1 11.28-40.8 11.95-41.5 12.95-41.5L12.95-41.5Q13.95-41.5 14.63-40.8 15.3-40.1 15.3-39L15.3-39Q15.3-38.4 15.13-37.15 14.95-35.9 14.7-34.4 14.45-32.9 14.18-31.25 13.9-29.6 13.7-28.2L13.7-28.2ZM22-0.55L21.25-11.75 23.1-11.75Q23.45-9.5 24.42-7.7 25.4-5.9 26.87-4.65 28.35-3.4 30.27-2.73 32.2-2.05 34.45-2.05L34.45-2.05Q38.15-2.05 40.3-3.8 42.45-5.55 42.45-8.55L42.45-8.55Q42.45-9.8 42.02-10.85 41.6-11.9 40.6-12.88 39.6-13.85 37.92-14.8 36.25-15.75 33.7-16.85L33.7-16.85Q30.6-18.2 28.5-19.45 26.4-20.7 25.15-22.05 23.9-23.4 23.37-24.93 22.85-26.45 22.85-28.4L22.85-28.4Q22.85-30.7 23.67-32.65 24.5-34.6 26-36.02 27.5-37.45 29.55-38.23 31.6-39 34.05-39L34.05-39Q36.25-39 38.15-38.3 40.05-37.6 42-36.05L42-36.05 43.3-38.3 44.45-38.3 45-28.35 43.15-28.35Q41.95-32.45 39.67-34.45 37.4-36.45 34.2-36.45L34.2-36.45Q31.15-36.45 29.35-34.95 27.55-33.45 27.55-30.9L27.55-30.9Q27.55-29.7 27.95-28.73 28.35-27.75 29.25-26.88 30.15-26 31.6-25.13 33.05-24.25 35.2-23.3L35.2-23.3Q38.9-21.65 41.35-20.23 43.8-18.8 45.25-17.38 46.7-15.95 47.3-14.38 47.9-12.8 47.9-10.85L47.9-10.85Q47.9-8.35 46.9-6.25 45.9-4.15 44.1-2.65 42.3-1.15 39.8-0.33 37.3 0.5 34.3 0.5L34.3 0.5Q31.45 0.5 29.17-0.3 26.9-1.1 24.55-3L24.55-3 23.15-0.55 22-0.55ZM61.05-41.5L61.05-7.8Q61.05-5.9 61.2-4.75 61.34-3.6 61.82-2.95 62.3-2.3 63.17-2.05 64.05-1.8 65.5-1.75L65.5-1.75 65.5 0 51.7 0 51.7-1.75Q53.2-1.8 54.09-2.08 54.99-2.35 55.52-2.95 56.05-3.55 56.22-4.63 56.39-5.7 56.39-7.45L56.39-7.45 56.39-29Q56.39-31.7 56.32-33.52 56.24-35.35 56.09-36L56.09-36Q55.84-37.15 54.92-37.55 53.99-37.95 51.59-37.95L51.59-37.95 51.59-39.65 61.05-41.5ZM91.39-6.05L92.94-4.65Q88.69 0.5 82.39 0.5L82.39 0.5Q79.44 0.5 77.04-0.48 74.64-1.45 72.92-3.23 71.19-5 70.24-7.48 69.29-9.95 69.29-12.95L69.29-12.95Q69.29-16 70.29-18.6 71.29-21.2 73.12-23.05 74.94-24.9 77.47-25.95 79.99-27 82.99-27L82.99-27Q87.84-27 90.49-24.38 93.14-21.75 93.14-16.85L93.14-16.85Q93.14-16.15 92.87-16 92.59-15.85 91.59-15.85L91.59-15.85 75.14-15.85Q75.04-15.45 74.99-14.88 74.94-14.3 74.94-13.6L74.94-13.6Q74.94-11 75.57-8.88 76.19-6.75 77.37-5.25 78.54-3.75 80.17-2.93 81.79-2.1 83.79-2.1L83.79-2.1Q85.89-2.1 87.69-3.03 89.49-3.95 91.39-6.05L91.39-6.05ZM75.49-18.15L84.69-18.15Q85.69-18.15 86.29-18.2 86.89-18.25 87.19-18.4 87.49-18.55 87.59-18.82 87.69-19.1 87.69-19.55L87.69-19.55Q87.69-21.85 86.22-23.23 84.74-24.6 82.19-24.6L82.19-24.6Q76.79-24.6 75.49-18.15L75.49-18.15ZM120.04-6.05L121.59-4.65Q117.34 0.5 111.04 0.5L111.04 0.5Q108.09 0.5 105.69-0.48 103.29-1.45 101.57-3.23 99.84-5 98.89-7.48 97.94-9.95 97.94-12.95L97.94-12.95Q97.94-16 98.94-18.6 99.94-21.2 101.77-23.05 103.59-24.9 106.12-25.95 108.64-27 111.64-27L111.64-27Q116.49-27 119.14-24.38 121.79-21.75 121.79-16.85L121.79-16.85Q121.79-16.15 121.52-16 121.24-15.85 120.24-15.85L120.24-15.85 103.79-15.85Q103.69-15.45 103.64-14.88 103.59-14.3 103.59-13.6L103.59-13.6Q103.59-11 104.22-8.88 104.84-6.75 106.02-5.25 107.19-3.75 108.82-2.93 110.44-2.1 112.44-2.1L112.44-2.1Q114.54-2.1 116.34-3.03 118.14-3.95 120.04-6.05L120.04-6.05ZM104.14-18.15L113.34-18.15Q114.34-18.15 114.94-18.2 115.54-18.25 115.84-18.4 116.14-18.55 116.24-18.82 116.34-19.1 116.34-19.55L116.34-19.55Q116.34-21.85 114.87-23.23 113.39-24.6 110.84-24.6L110.84-24.6Q105.44-24.6 104.14-18.15L104.14-18.15ZM134.64-26.8L134.64-22.9 134.84-22.9Q136.44-24.8 138.29-25.9 140.14-27 142.59-27L142.59-27Q145.44-27 147.81-25.98 150.19-24.95 151.94-23.1 153.69-21.25 154.66-18.73 155.64-16.2 155.64-13.2L155.64-13.2Q155.64-10.15 154.64-7.63 153.64-5.1 151.89-3.3 150.14-1.5 147.74-0.5 145.34 0.5 142.54 0.5L142.54 0.5Q140.24 0.5 138.36-0.28 136.49-1.05 134.84-2.8L134.84-2.8 134.84 4.5Q134.84 6.5 135.04 7.7 135.24 8.9 135.84 9.55 136.44 10.2 137.56 10.45 138.69 10.7 140.54 10.75L140.54 10.75 140.54 12.5 125.14 12.5 125.14 10.75Q126.64 10.7 127.56 10.45 128.49 10.2 129.01 9.55 129.54 8.9 129.74 7.78 129.94 6.65 129.94 4.85L129.94 4.85 129.94-13.85Q129.94-16.75 129.86-18.6 129.79-20.45 129.59-21.15L129.59-21.15Q129.34-22.35 128.44-22.78 127.54-23.2 125.04-23.2L125.04-23.2 125.04-24.9 134.64-26.8ZM136.14-21.45L136.14-21.45Q135.49-20.45 135.16-19.07 134.84-17.7 134.84-15.5L134.84-15.5 134.84-11.6Q134.84-10.25 134.91-9.28 134.99-8.3 135.14-7.6 135.29-6.9 135.54-6.35 135.79-5.8 136.19-5.3L136.19-5.3Q137.34-3.7 138.94-2.83 140.54-1.95 142.29-1.95L142.29-1.95Q145.74-1.95 147.86-4.85 149.99-7.75 149.99-13L149.99-13Q149.99-15.6 149.41-17.73 148.84-19.85 147.79-21.38 146.74-22.9 145.26-23.75 143.79-24.6 141.99-24.6L141.99-24.6Q140.19-24.6 138.66-23.78 137.14-22.95 136.14-21.45ZM183.83-27L183.83-7.95Q183.83-6 184.01-4.83 184.18-3.65 184.68-2.98 185.18-2.3 186.08-2.05 186.98-1.8 188.48-1.75L188.48-1.75 188.48 0 174.13 0 174.13-1.75Q175.63-1.8 176.58-2.08 177.53-2.35 178.06-2.98 178.58-3.6 178.76-4.73 178.93-5.85 178.93-7.6L178.93-7.6 178.93-14Q178.93-16.9 178.86-18.78 178.78-20.65 178.58-21.35L178.58-21.35Q178.33-22.5 177.43-22.93 176.53-23.35 174.03-23.35L174.03-23.35 174.03-25.1 183.83-27ZM178.08-37.15L178.08-37.15Q178.08-38.45 178.98-39.35 179.88-40.25 181.18-40.25L181.18-40.25Q182.48-40.25 183.38-39.35 184.28-38.45 184.28-37.15L184.28-37.15Q184.28-35.85 183.38-34.95 182.48-34.05 181.18-34.05L181.18-34.05Q179.88-34.05 178.98-34.95 178.08-35.85 178.08-37.15ZM194.78-1.75L193.78 0 192.68 0 192.68-8.6 193.93-8.6Q195.88-1.55 201.03-1.55L201.03-1.55Q203.03-1.55 204.21-2.53 205.38-3.5 205.38-5.5L205.38-5.5Q205.38-6.25 205.16-6.78 204.93-7.3 204.31-7.88 203.68-8.45 202.56-9.2 201.43-9.95 199.58-11.1L199.58-11.1Q197.88-12.15 196.63-13.05 195.38-13.95 194.53-14.88 193.68-15.8 193.26-16.85 192.83-17.9 192.83-19.3L192.83-19.3Q192.83-21 193.41-22.43 193.98-23.85 194.98-24.85 195.98-25.85 197.33-26.43 198.68-27 200.28-27L200.28-27Q201.63-27 203.08-26.58 204.53-26.15 205.63-25.45L205.63-25.45 206.63-26.5 207.58-26.5 207.58-19.3 206.28-19.3Q205.18-22.35 203.88-23.65 202.58-24.95 200.68-24.95L200.68-24.95Q198.98-24.95 197.96-24.05 196.93-23.15 196.93-21.55L196.93-21.55Q196.93-20.7 197.21-20.08 197.48-19.45 198.08-18.85 198.68-18.25 199.61-17.63 200.53-17 201.83-16.2L201.83-16.2Q203.98-14.85 205.51-13.8 207.03-12.75 207.98-11.73 208.93-10.7 209.38-9.6 209.83-8.5 209.83-7.1L209.83-7.1Q209.83-3.55 207.53-1.53 205.23 0.5 201.48 0.5L201.48 0.5Q197.58 0.5 194.78-1.75L194.78-1.75ZM240.23-10.75L240.23-10.75Q242.33-10.75 243.5-12.65 244.68-14.55 244.68-18L244.68-18Q244.68-21.4 243.5-23.28 242.33-25.15 240.18-25.15L240.18-25.15Q238.03-25.15 236.75-23.25 235.48-21.35 235.48-18.05L235.48-18.05Q235.48-14.75 236.78-12.75 238.08-10.75 240.23-10.75ZM237.48-4.9L237.48-4.9Q238.68-4.8 239.68-4.7 240.68-4.6 241.65-4.5 242.63-4.4 243.6-4.25 244.58-4.1 245.73-3.95L245.73-3.95Q249.33-3.4 251.5-1.18 253.68 1.05 253.68 4.4L253.68 4.4Q253.68 8.6 250.35 10.8 247.03 13 240.73 13L240.73 13Q237.93 13 235.6 12.5 233.28 12 231.63 11.08 229.98 10.15 229.05 8.85 228.13 7.55 228.13 6L228.13 6Q228.13 4.95 228.48 4.05 228.83 3.15 229.43 2.48 230.03 1.8 230.85 1.4 231.68 1 232.58 1L232.58 1Q234.28 1 235.63 2.05L235.63 2.05Q234.28 2.35 233.43 3.53 232.58 4.7 232.58 6.2L232.58 6.2Q232.58 8.4 234.75 9.6 236.93 10.8 240.93 10.8L240.93 10.8Q249.48 10.8 249.48 5.55L249.48 5.55Q249.48 3.55 248.13 2.23 246.78 0.9 244.93 0.65L244.93 0.65Q243.73 0.5 242.45 0.33 241.18 0.15 239.95 0 238.73-0.15 237.68-0.25 236.63-0.35 235.98-0.45L235.98-0.45Q233.18-0.75 231.73-1.95 230.28-3.15 230.28-5.25L230.28-5.25Q230.28-7 231.73-8.35 233.18-9.7 235.38-10.05L235.38-10.05 235.38-10.25Q234.28-10.7 233.33-11.53 232.38-12.35 231.7-13.4 231.03-14.45 230.63-15.68 230.23-16.9 230.23-18.2L230.23-18.2Q230.23-20.1 230.95-21.7 231.68-23.3 233-24.48 234.33-25.65 236.13-26.33 237.93-27 240.08-27L240.08-27Q242.28-27 244.23-26.33 246.18-25.65 247.58-24.35L247.58-24.35Q249.28-25.75 250.58-26.38 251.88-27 253.03-27L253.03-27Q254.83-27 255.9-26.18 256.98-25.35 256.98-23.95L256.98-23.95Q256.98-23.1 256.4-22.6 255.83-22.1 254.98-22.1L254.98-22.1Q254.28-22.1 253.83-22.35 253.38-22.6 253-22.88 252.63-23.15 252.23-23.4 251.83-23.65 251.23-23.65L251.23-23.65Q250.03-23.65 248.78-22.8L248.78-22.8Q249.98-20.95 249.98-18.15L249.98-18.15Q249.98-13.9 247.33-11.48 244.68-9.05 239.38-8.65L239.38-8.65Q236.33-8.4 235.13-8 233.93-7.6 233.93-6.55L233.93-6.55Q233.93-5.75 234.83-5.38 235.73-5 237.48-4.9ZM272.47-27L272.47-27Q275.32-27 277.87-25.98 280.42-24.95 282.35-23.15 284.27-21.35 285.4-18.88 286.52-16.4 286.52-13.45L286.52-13.45Q286.52-10.4 285.4-7.85 284.27-5.3 282.35-3.45 280.42-1.6 277.87-0.55 275.32 0.5 272.47 0.5L272.47 0.5Q269.67 0.5 267.15-0.53 264.62-1.55 262.72-3.4 260.82-5.25 259.72-7.83 258.62-10.4 258.62-13.45L258.62-13.45Q258.62-16.4 259.72-18.9 260.82-21.4 262.72-23.2 264.62-25 267.15-26 269.67-27 272.47-27ZM272.47-24.6L272.47-24.6Q270.62-24.6 269.1-23.8 267.57-23 266.5-21.53 265.42-20.05 264.85-17.98 264.27-15.9 264.27-13.4L264.27-13.4Q264.27-10.8 264.85-8.7 265.42-6.6 266.5-5.13 267.57-3.65 269.07-2.85 270.57-2.05 272.47-2.05L272.47-2.05Q274.37-2.05 275.92-2.85 277.47-3.65 278.57-5.15 279.67-6.65 280.27-8.75 280.87-10.85 280.87-13.4L280.87-13.4Q280.87-15.9 280.27-17.95 279.67-20 278.57-21.48 277.47-22.95 275.92-23.78 274.37-24.6 272.47-24.6ZM305.17-27L305.17-27Q308.02-27 310.57-25.98 313.12-24.95 315.05-23.15 316.97-21.35 318.1-18.88 319.22-16.4 319.22-13.45L319.22-13.45Q319.22-10.4 318.1-7.85 316.97-5.3 315.05-3.45 313.12-1.6 310.57-0.55 308.02 0.5 305.17 0.5L305.17 0.5Q302.37 0.5 299.85-0.53 297.32-1.55 295.42-3.4 293.52-5.25 292.42-7.83 291.32-10.4 291.32-13.45L291.32-13.45Q291.32-16.4 292.42-18.9 293.52-21.4 295.42-23.2 297.32-25 299.85-26 302.37-27 305.17-27ZM305.17-24.6L305.17-24.6Q303.32-24.6 301.8-23.8 300.27-23 299.2-21.53 298.12-20.05 297.55-17.98 296.97-15.9 296.97-13.4L296.97-13.4Q296.97-10.8 297.55-8.7 298.12-6.6 299.2-5.13 300.27-3.65 301.77-2.85 303.27-2.05 305.17-2.05L305.17-2.05Q307.07-2.05 308.62-2.85 310.17-3.65 311.27-5.15 312.37-6.65 312.97-8.75 313.57-10.85 313.57-13.4L313.57-13.4Q313.57-15.9 312.97-17.95 312.37-20 311.27-21.48 310.17-22.95 308.62-23.78 307.07-24.6 305.17-24.6ZM345.82 0.5L345.82-4.2 345.62-4.2Q343.82-1.65 341.79-0.58 339.77 0.5 337.02 0.5L337.02 0.5Q334.17 0.5 331.79-0.53 329.42-1.55 327.69-3.38 325.97-5.2 324.99-7.75 324.02-10.3 324.02-13.3L324.02-13.3Q324.02-16.25 324.99-18.78 325.97-21.3 327.69-23.13 329.42-24.95 331.82-25.98 334.22-27 337.02-27L337.02-27Q339.42-27 341.29-26.2 343.17-25.4 344.92-23.65L344.92-23.65 344.92-28.75Q344.92-31.6 344.84-33.5 344.77-35.4 344.62-36.1L344.62-36.1Q344.37-37.2 343.22-37.65 342.07-38.1 339.47-38.1L339.47-38.1 339.47-39.6 349.72-41.5 349.72-12.65Q349.72-9.2 349.77-6.98 349.82-4.75 350.07-3.8L350.07-3.8Q350.22-3.2 350.44-2.8 350.67-2.4 351.09-2.18 351.52-1.95 352.24-1.85 352.97-1.75 354.12-1.75L354.12-1.75 354.12-0.05 345.82 0.5ZM344.82-11.95L344.82-15.25Q344.82-17.85 344.54-19.2 344.27-20.55 343.47-21.55L343.47-21.55Q342.32-23.05 340.54-23.83 338.77-24.6 337.02-24.6L337.02-24.6Q333.42-24.6 331.54-21.63 329.67-18.65 329.67-13.55L329.67-13.55Q329.67-10.9 330.14-8.75 330.62-6.6 331.54-5.08 332.47-3.55 333.84-2.73 335.22-1.9 337.02-1.9L337.02-1.9Q337.92-1.9 338.84-2.1 339.77-2.3 340.64-2.73 341.52-3.15 342.27-3.73 343.02-4.3 343.52-5.05L343.52-5.05Q344.22-6.15 344.52-7.7 344.82-9.25 344.82-11.95L344.82-11.95ZM358.97 8.75L357.82 7.15Q360.52 5.25 361.67 3.5 362.82 1.75 362.82-0.4L362.82-0.4Q362.17 0 361.32 0L361.32 0Q360.17 0 359.44-0.83 358.72-1.65 358.72-2.95L358.72-2.95Q358.72-4.35 359.64-5.2 360.57-6.05 362.07-6.05L362.07-6.05Q365.67-6.05 365.67-1.05L365.67-1.05Q365.67 0.35 365.32 1.55 364.97 2.75 364.19 3.9 363.42 5.05 362.12 6.23 360.82 7.4 358.97 8.75L358.97 8.75ZM393.76-14.35L393.76-7.95Q393.76-5.9 393.86-4.7 393.96-3.5 394.39-2.88 394.81-2.25 395.61-2.05 396.41-1.85 397.86-1.75L397.86-1.75 397.86 0 384.56 0 384.56-1.75Q386.01-1.85 386.86-2.05 387.71-2.25 388.16-2.85 388.61-3.45 388.74-4.58 388.86-5.7 388.86-7.6L388.86-7.6 388.86-28.55Q388.86-31.5 388.79-33.25 388.71-35 388.51-35.9L388.51-35.9Q388.41-36.5 388.19-36.88 387.96-37.25 387.51-37.48 387.06-37.7 386.31-37.8 385.56-37.9 384.46-37.9L384.46-37.9 384.46-39.6 393.66-41.5 393.66-22.45 393.86-22.45Q394.61-23.45 395.74-24.28 396.86-25.1 398.16-25.7 399.46-26.3 400.89-26.65 402.31-27 403.66-27L403.66-27Q405.96-27 407.89-26.2 409.81-25.4 410.86-24.05L410.86-24.05Q411.71-22.9 412.11-21.03 412.51-19.15 412.51-15.95L412.51-15.95 412.51-7.95Q412.51-5.9 412.61-4.73 412.71-3.55 413.14-2.9 413.56-2.25 414.36-2.05 415.16-1.85 416.61-1.75L416.61-1.75 416.61 0 403.36 0 403.36-1.75Q404.76-1.8 405.61-2.02 406.46-2.25 406.89-2.85 407.31-3.45 407.44-4.58 407.56-5.7 407.56-7.6L407.56-7.6 407.56-13.9Q407.56-19.5 406.26-21.88 404.96-24.25 401.91-24.25L401.91-24.25Q399.56-24.25 397.64-23.05 395.71-21.85 394.61-19.75L394.61-19.75Q394.36-19.2 394.19-18.73 394.01-18.25 393.91-17.65 393.81-17.05 393.79-16.28 393.76-15.5 393.76-14.35L393.76-14.35ZM442.31-6.05L443.86-4.65Q439.61 0.5 433.31 0.5L433.31 0.5Q430.36 0.5 427.96-0.48 425.56-1.45 423.83-3.23 422.11-5 421.16-7.48 420.21-9.95 420.21-12.95L420.21-12.95Q420.21-16 421.21-18.6 422.21-21.2 424.03-23.05 425.86-24.9 428.38-25.95 430.91-27 433.91-27L433.91-27Q438.76-27 441.41-24.38 444.06-21.75 444.06-16.85L444.06-16.85Q444.06-16.15 443.78-16 443.51-15.85 442.51-15.85L442.51-15.85 426.06-15.85Q425.96-15.45 425.91-14.88 425.86-14.3 425.86-13.6L425.86-13.6Q425.86-11 426.48-8.88 427.11-6.75 428.28-5.25 429.46-3.75 431.08-2.93 432.71-2.1 434.71-2.1L434.71-2.1Q436.81-2.1 438.61-3.03 440.41-3.95 442.31-6.05L442.31-6.05ZM426.41-18.15L435.61-18.15Q436.61-18.15 437.21-18.2 437.81-18.25 438.11-18.4 438.41-18.55 438.51-18.82 438.61-19.1 438.61-19.55L438.61-19.55Q438.61-21.85 437.13-23.23 435.66-24.6 433.11-24.6L433.11-24.6Q427.71-24.6 426.41-18.15L426.41-18.15ZM466.05-1.75L465.05 0 463.95 0 463.95-8.6 465.2-8.6Q467.15-1.55 472.3-1.55L472.3-1.55Q474.3-1.55 475.48-2.53 476.65-3.5 476.65-5.5L476.65-5.5Q476.65-6.25 476.43-6.78 476.2-7.3 475.58-7.88 474.95-8.45 473.83-9.2 472.7-9.95 470.85-11.1L470.85-11.1Q469.15-12.15 467.9-13.05 466.65-13.95 465.8-14.88 464.95-15.8 464.53-16.85 464.1-17.9 464.1-19.3L464.1-19.3Q464.1-21 464.68-22.43 465.25-23.85 466.25-24.85 467.25-25.85 468.6-26.43 469.95-27 471.55-27L471.55-27Q472.9-27 474.35-26.58 475.8-26.15 476.9-25.45L476.9-25.45 477.9-26.5 478.85-26.5 478.85-19.3 477.55-19.3Q476.45-22.35 475.15-23.65 473.85-24.95 471.95-24.95L471.95-24.95Q470.25-24.95 469.23-24.05 468.2-23.15 468.2-21.55L468.2-21.55Q468.2-20.7 468.48-20.08 468.75-19.45 469.35-18.85 469.95-18.25 470.88-17.63 471.8-17 473.1-16.2L473.1-16.2Q475.25-14.85 476.78-13.8 478.3-12.75 479.25-11.73 480.2-10.7 480.65-9.6 481.1-8.5 481.1-7.1L481.1-7.1Q481.1-3.55 478.8-1.53 476.5 0.5 472.75 0.5L472.75 0.5Q468.85 0.5 466.05-1.75L466.05-1.75ZM500.9-10.85L500.9-14.8Q498.05-13.7 496.08-12.65 494.1-11.6 492.9-10.55 491.7-9.5 491.18-8.45 490.65-7.4 490.65-6.3L490.65-6.3Q490.65-4.65 491.75-3.6 492.85-2.55 494.65-2.55L494.65-2.55Q495.95-2.55 497.08-3.2 498.2-3.85 499.05-4.98 499.9-6.1 500.4-7.63 500.9-9.15 500.9-10.85L500.9-10.85ZM493.7-13.8L500.9-16.95 500.9-19Q500.9-25.1 495.7-25.1L495.7-25.1Q494.85-25.1 494.25-24.95 493.65-24.8 493.25-24.45 492.85-24.1 492.53-23.45 492.2-22.8 491.9-21.85L491.9-21.85Q491.35-20.4 490.83-19.93 490.3-19.45 489.3-19.45L489.3-19.45Q486.8-19.45 486.8-21.95L486.8-21.95Q486.8-24.35 489.35-25.68 491.9-27 496.6-27L496.6-27Q501.6-27 503.7-25.23 505.8-23.45 505.8-19.2L505.8-19.2 505.8-8Q505.8-2.3 508.05-2.3L508.05-2.3Q508.75-2.3 509.4-2.48 510.05-2.65 510.5-3.4L510.5-3.4 511.2-2.2Q510.6-1.05 509-0.28 507.4 0.5 505.65 0.5L505.65 0.5Q503.45 0.5 502.38-0.9 501.3-2.3 501.3-4.85L501.3-4.85 501.05-4.85Q499.75-2.4 497.45-0.98 495.15 0.45 492.35 0.45L492.35 0.45Q489.2 0.45 487.4-1.15 485.6-2.75 485.6-5.45L485.6-5.45Q485.6-6.65 486.03-7.75 486.45-8.85 487.4-9.85 488.35-10.85 489.9-11.83 491.45-12.8 493.7-13.8L493.7-13.8ZM522.55-27L522.55-7.95Q522.55-6 522.72-4.83 522.9-3.65 523.4-2.98 523.9-2.3 524.8-2.05 525.7-1.8 527.2-1.75L527.2-1.75 527.2 0 512.85 0 512.85-1.75Q514.35-1.8 515.3-2.08 516.25-2.35 516.77-2.98 517.3-3.6 517.47-4.73 517.65-5.85 517.65-7.6L517.65-7.6 517.65-14Q517.65-16.9 517.57-18.78 517.5-20.65 517.3-21.35L517.3-21.35Q517.05-22.5 516.15-22.93 515.25-23.35 512.75-23.35L512.75-23.35 512.75-25.1 522.55-27ZM516.8-37.15L516.8-37.15Q516.8-38.45 517.7-39.35 518.6-40.25 519.9-40.25L519.9-40.25Q521.2-40.25 522.1-39.35 523-38.45 523-37.15L523-37.15Q523-35.85 522.1-34.95 521.2-34.05 519.9-34.05L519.9-34.05Q518.6-34.05 517.7-34.95 516.8-35.85 516.8-37.15ZM552.39 0.5L552.39-4.2 552.19-4.2Q550.39-1.65 548.37-0.58 546.34 0.5 543.59 0.5L543.59 0.5Q540.74 0.5 538.37-0.53 535.99-1.55 534.27-3.38 532.54-5.2 531.57-7.75 530.59-10.3 530.59-13.3L530.59-13.3Q530.59-16.25 531.57-18.78 532.54-21.3 534.27-23.13 535.99-24.95 538.39-25.98 540.79-27 543.59-27L543.59-27Q545.99-27 547.87-26.2 549.74-25.4 551.49-23.65L551.49-23.65 551.49-28.75Q551.49-31.6 551.42-33.5 551.34-35.4 551.19-36.1L551.19-36.1Q550.94-37.2 549.79-37.65 548.64-38.1 546.04-38.1L546.04-38.1 546.04-39.6 556.29-41.5 556.29-12.65Q556.29-9.2 556.34-6.98 556.39-4.75 556.64-3.8L556.64-3.8Q556.79-3.2 557.02-2.8 557.24-2.4 557.67-2.18 558.09-1.95 558.82-1.85 559.54-1.75 560.69-1.75L560.69-1.75 560.69-0.05 552.39 0.5ZM551.39-11.95L551.39-15.25Q551.39-17.85 551.12-19.2 550.84-20.55 550.04-21.55L550.04-21.55Q548.89-23.05 547.12-23.83 545.34-24.6 543.59-24.6L543.59-24.6Q539.99-24.6 538.12-21.63 536.24-18.65 536.24-13.55L536.24-13.55Q536.24-10.9 536.72-8.75 537.19-6.6 538.12-5.08 539.04-3.55 540.42-2.73 541.79-1.9 543.59-1.9L543.59-1.9Q544.49-1.9 545.42-2.1 546.34-2.3 547.22-2.73 548.09-3.15 548.84-3.73 549.59-4.3 550.09-5.05L550.09-5.05Q550.79-6.15 551.09-7.7 551.39-9.25 551.39-11.95L551.39-11.95ZM565.54 8.75L564.39 7.15Q567.09 5.25 568.24 3.5 569.39 1.75 569.39-0.4L569.39-0.4Q568.74 0 567.89 0L567.89 0Q566.74 0 566.02-0.83 565.29-1.65 565.29-2.95L565.29-2.95Q565.29-4.35 566.22-5.2 567.14-6.05 568.64-6.05L568.64-6.05Q572.24-6.05 572.24-1.05L572.24-1.05Q572.24 0.35 571.89 1.55 571.54 2.75 570.77 3.9 569.99 5.05 568.69 6.23 567.39 7.4 565.54 8.75L565.54 8.75ZM607.39-10.85L607.39-14.8Q604.54-13.7 602.56-12.65 600.59-11.6 599.39-10.55 598.19-9.5 597.66-8.45 597.14-7.4 597.14-6.3L597.14-6.3Q597.14-4.65 598.24-3.6 599.34-2.55 601.14-2.55L601.14-2.55Q602.44-2.55 603.56-3.2 604.69-3.85 605.54-4.98 606.39-6.1 606.89-7.63 607.39-9.15 607.39-10.85L607.39-10.85ZM600.19-13.8L607.39-16.95 607.39-19Q607.39-25.1 602.19-25.1L602.19-25.1Q601.34-25.1 600.74-24.95 600.14-24.8 599.74-24.45 599.34-24.1 599.01-23.45 598.69-22.8 598.39-21.85L598.39-21.85Q597.84-20.4 597.31-19.93 596.79-19.45 595.79-19.45L595.79-19.45Q593.29-19.45 593.29-21.95L593.29-21.95Q593.29-24.35 595.84-25.68 598.39-27 603.09-27L603.09-27Q608.09-27 610.19-25.23 612.29-23.45 612.29-19.2L612.29-19.2 612.29-8Q612.29-2.3 614.54-2.3L614.54-2.3Q615.24-2.3 615.89-2.48 616.54-2.65 616.99-3.4L616.99-3.4 617.69-2.2Q617.09-1.05 615.49-0.28 613.89 0.5 612.14 0.5L612.14 0.5Q609.94 0.5 608.86-0.9 607.79-2.3 607.79-4.85L607.79-4.85 607.54-4.85Q606.24-2.4 603.94-0.98 601.64 0.45 598.84 0.45L598.84 0.45Q595.69 0.45 593.89-1.15 592.09-2.75 592.09-5.45L592.09-5.45Q592.09-6.65 592.51-7.75 592.94-8.85 593.89-9.85 594.84-10.85 596.39-11.83 597.94-12.8 600.19-13.8L600.19-13.8ZM628.43-14.55L628.43-7.85Q628.43-5.8 628.53-4.63 628.63-3.45 629.06-2.83 629.48-2.2 630.31-2 631.13-1.8 632.58-1.7L632.58-1.7 632.58 0 619.48 0 619.48-1.7Q620.88-1.8 621.71-2 622.53-2.2 622.98-2.8 623.43-3.4 623.56-4.5 623.68-5.6 623.68-7.5L623.68-7.5 623.68-14.15Q623.68-20.1 623.38-21.4L623.38-21.4Q623.23-22.05 623.01-22.48 622.78-22.9 622.33-23.13 621.88-23.35 621.18-23.43 620.48-23.5 619.38-23.5L619.38-23.5 619.38-25.1 627.38-27 627.98-22.05 628.18-22.05Q630.08-24.4 632.63-25.7 635.18-27 638.18-27L638.18-27Q640.48-27 642.38-26.25 644.28-25.5 645.28-24.2L645.28-24.2Q646.13-23.05 646.48-21.23 646.83-19.4 646.83-16.2L646.83-16.2 646.83-7.85Q646.83-5.8 646.96-4.63 647.08-3.45 647.48-2.83 647.88-2.2 648.71-2 649.53-1.8 650.88-1.7L650.88-1.7 650.88 0 637.93 0 637.93-1.7Q639.33-1.75 640.16-1.98 640.98-2.2 641.41-2.8 641.83-3.4 641.96-4.53 642.08-5.65 642.08-7.5L642.08-7.5 642.08-14.1Q642.08-16.95 641.78-18.9 641.48-20.85 640.81-22.05 640.13-23.25 639.03-23.78 637.93-24.3 636.38-24.3L636.38-24.3Q634.13-24.3 632.26-23.13 630.38-21.95 629.33-19.9L629.33-19.9Q629.08-19.4 628.91-18.95 628.73-18.5 628.63-17.9 628.53-17.3 628.48-16.53 628.43-15.75 628.43-14.55L628.43-14.55ZM676.28 0.5L676.28-4.2 676.08-4.2Q674.28-1.65 672.26-0.58 670.23 0.5 667.48 0.5L667.48 0.5Q664.63 0.5 662.26-0.53 659.88-1.55 658.16-3.38 656.43-5.2 655.46-7.75 654.48-10.3 654.48-13.3L654.48-13.3Q654.48-16.25 655.46-18.78 656.43-21.3 658.16-23.13 659.88-24.95 662.28-25.98 664.68-27 667.48-27L667.48-27Q669.88-27 671.76-26.2 673.63-25.4 675.38-23.65L675.38-23.65 675.38-28.75Q675.38-31.6 675.31-33.5 675.23-35.4 675.08-36.1L675.08-36.1Q674.83-37.2 673.68-37.65 672.53-38.1 669.93-38.1L669.93-38.1 669.93-39.6 680.18-41.5 680.18-12.65Q680.18-9.2 680.23-6.98 680.28-4.75 680.53-3.8L680.53-3.8Q680.68-3.2 680.91-2.8 681.13-2.4 681.56-2.18 681.98-1.95 682.71-1.85 683.43-1.75 684.58-1.75L684.58-1.75 684.58-0.05 676.28 0.5ZM675.28-11.95L675.28-15.25Q675.28-17.85 675.01-19.2 674.73-20.55 673.93-21.55L673.93-21.55Q672.78-23.05 671.01-23.83 669.23-24.6 667.48-24.6L667.48-24.6Q663.88-24.6 662.01-21.63 660.13-18.65 660.13-13.55L660.13-13.55Q660.13-10.9 660.61-8.75 661.08-6.6 662.01-5.08 662.93-3.55 664.31-2.73 665.68-1.9 667.48-1.9L667.48-1.9Q668.38-1.9 669.31-2.1 670.23-2.3 671.11-2.73 671.98-3.15 672.73-3.73 673.48-4.3 673.98-5.05L673.98-5.05Q674.68-6.15 674.98-7.7 675.28-9.25 675.28-11.95L675.28-11.95ZM709.63-14.9L709.63-10.45Q709.63-8.55 710.18-6.98 710.73-5.4 711.7-4.28 712.68-3.15 714.05-2.5 715.43-1.85 717.03-1.85L717.03-1.85Q718.78-1.85 720.2-2.65 721.63-3.45 722.65-4.93 723.68-6.4 724.25-8.47 724.83-10.55 724.83-13.1L724.83-13.1Q724.83-15.65 724.23-17.78 723.63-19.9 722.58-21.43 721.53-22.95 720.05-23.8 718.58-24.65 716.83-24.65L716.83-24.65Q714.78-24.65 713.18-23.68 711.58-22.7 710.73-20.95L710.73-20.95Q709.63-18.75 709.63-14.9L709.63-14.9ZM709.53-41.5L709.53-22.95 709.73-22.95Q711.33-25.05 713.25-26.03 715.18-27 717.73-27L717.73-27Q720.43-27 722.75-25.95 725.08-24.9 726.8-23.05 728.53-21.2 729.5-18.68 730.48-16.15 730.48-13.25L730.48-13.25Q730.48-10.3 729.48-7.78 728.48-5.25 726.75-3.4 725.03-1.55 722.68-0.5 720.33 0.55 717.58 0.55L717.58 0.55Q714.73 0.55 712.25-0.5 709.78-1.55 708.18-3.35L708.18-3.35 705.83 0 704.73 0 704.73-30.2Q704.73-35.25 704.08-36.65L704.08-36.65Q703.93-37 703.73-37.23 703.53-37.45 703.13-37.63 702.73-37.8 702.03-37.95 701.33-38.1 700.13-38.25L700.13-38.25 700.13-39.5 709.53-41.5ZM749.12-27L749.12-27Q751.97-27 754.52-25.98 757.07-24.95 759-23.15 760.92-21.35 762.05-18.88 763.17-16.4 763.17-13.45L763.17-13.45Q763.17-10.4 762.05-7.85 760.92-5.3 759-3.45 757.07-1.6 754.52-0.55 751.97 0.5 749.12 0.5L749.12 0.5Q746.32 0.5 743.8-0.53 741.27-1.55 739.37-3.4 737.47-5.25 736.37-7.83 735.27-10.4 735.27-13.45L735.27-13.45Q735.27-16.4 736.37-18.9 737.47-21.4 739.37-23.2 741.27-25 743.8-26 746.32-27 749.12-27ZM749.12-24.6L749.12-24.6Q747.27-24.6 745.75-23.8 744.22-23 743.15-21.53 742.07-20.05 741.5-17.98 740.92-15.9 740.92-13.4L740.92-13.4Q740.92-10.8 741.5-8.7 742.07-6.6 743.15-5.13 744.22-3.65 745.72-2.85 747.22-2.05 749.12-2.05L749.12-2.05Q751.02-2.05 752.57-2.85 754.12-3.65 755.22-5.15 756.32-6.65 756.92-8.75 757.52-10.85 757.52-13.4L757.52-13.4Q757.52-15.9 756.92-17.95 756.32-20 755.22-21.48 754.12-22.95 752.57-23.78 751.02-24.6 749.12-24.6ZM781.82-27L781.82-27Q784.67-27 787.22-25.98 789.77-24.95 791.7-23.15 793.62-21.35 794.75-18.88 795.87-16.4 795.87-13.45L795.87-13.45Q795.87-10.4 794.75-7.85 793.62-5.3 791.7-3.45 789.77-1.6 787.22-0.55 784.67 0.5 781.82 0.5L781.82 0.5Q779.02 0.5 776.5-0.53 773.97-1.55 772.07-3.4 770.17-5.25 769.07-7.83 767.97-10.4 767.97-13.45L767.97-13.45Q767.97-16.4 769.07-18.9 770.17-21.4 772.07-23.2 773.97-25 776.5-26 779.02-27 781.82-27ZM781.82-24.6L781.82-24.6Q779.97-24.6 778.45-23.8 776.92-23 775.85-21.53 774.77-20.05 774.2-17.98 773.62-15.9 773.62-13.4L773.62-13.4Q773.62-10.8 774.2-8.7 774.77-6.6 775.85-5.13 776.92-3.65 778.42-2.85 779.92-2.05 781.82-2.05L781.82-2.05Q783.72-2.05 785.27-2.85 786.82-3.65 787.92-5.15 789.02-6.65 789.62-8.75 790.22-10.85 790.22-13.4L790.22-13.4Q790.22-15.9 789.62-17.95 789.02-20 787.92-21.48 786.82-22.95 785.27-23.78 783.72-24.6 781.82-24.6ZM815.67 0L815.67-1.75Q817.32-1.75 817.94-1.9 818.57-2.05 818.57-2.3L818.57-2.3Q818.52-2.7 817.77-3.75 817.02-4.8 815.82-6.25L815.82-6.25 810.52-12.65 808.67-10.9 808.67-7.95Q808.67-6 808.84-4.83 809.02-3.65 809.49-2.98 809.97-2.3 810.89-2.05 811.82-1.8 813.32-1.75L813.32-1.75 813.32 0 799.12 0 799.12-1.75Q800.62-1.8 801.54-2.05 802.47-2.3 802.99-2.95 803.52-3.6 803.72-4.7 803.92-5.8 803.92-7.6L803.92-7.6 803.92-28.55Q803.92-32.35 803.84-34.3 803.77-36.25 803.32-36.95L803.32-36.95Q802.87-37.65 801.82-37.77 800.77-37.9 799.02-37.9L799.02-37.9 799.02-39.6 808.67-41.5 808.67-14.05 813.32-18.6Q815.57-20.85 816.67-21.93 817.77-23 817.77-23.55L817.77-23.55Q817.77-24.1 816.72-24.43 815.67-24.75 813.72-24.75L813.72-24.75 813.72-26.5 826.72-26.5 826.72-24.75Q825.77-24.75 825.07-24.65 824.37-24.55 823.74-24.25 823.12-23.95 822.42-23.43 821.72-22.9 820.82-22.1L820.82-22.1 813.62-15.7 823.52-4.5Q824.22-3.65 824.79-3.13 825.37-2.6 825.94-2.3 826.52-2 827.19-1.88 827.87-1.75 828.82-1.75L828.82-1.75 828.82 0 815.67 0ZM834.37-1.75L833.37 0 832.27 0 832.27-8.6 833.52-8.6Q835.47-1.55 840.62-1.55L840.62-1.55Q842.62-1.55 843.79-2.53 844.97-3.5 844.97-5.5L844.97-5.5Q844.97-6.25 844.74-6.78 844.52-7.3 843.89-7.88 843.27-8.45 842.14-9.2 841.02-9.95 839.17-11.1L839.17-11.1Q837.47-12.15 836.22-13.05 834.97-13.95 834.12-14.88 833.27-15.8 832.84-16.85 832.42-17.9 832.42-19.3L832.42-19.3Q832.42-21 832.99-22.43 833.57-23.85 834.57-24.85 835.57-25.85 836.92-26.43 838.27-27 839.87-27L839.87-27Q841.22-27 842.67-26.58 844.12-26.15 845.22-25.45L845.22-25.45 846.22-26.5 847.17-26.5 847.17-19.3 845.87-19.3Q844.77-22.35 843.47-23.65 842.17-24.95 840.27-24.95L840.27-24.95Q838.57-24.95 837.54-24.05 836.52-23.15 836.52-21.55L836.52-21.55Q836.52-20.7 836.79-20.08 837.07-19.45 837.67-18.85 838.27-18.25 839.19-17.63 840.12-17 841.42-16.2L841.42-16.2Q843.57-14.85 845.09-13.8 846.62-12.75 847.57-11.73 848.52-10.7 848.97-9.6 849.42-8.5 849.42-7.1L849.42-7.1Q849.42-3.55 847.12-1.53 844.82 0.5 841.07 0.5L841.07 0.5Q837.17 0.5 834.37-1.75L834.37-1.75ZM883.56-10.85L883.56-14.8Q880.71-13.7 878.74-12.65 876.76-11.6 875.56-10.55 874.36-9.5 873.84-8.45 873.31-7.4 873.31-6.3L873.31-6.3Q873.31-4.65 874.41-3.6 875.51-2.55 877.31-2.55L877.31-2.55Q878.61-2.55 879.74-3.2 880.86-3.85 881.71-4.98 882.56-6.1 883.06-7.63 883.56-9.15 883.56-10.85L883.56-10.85ZM876.36-13.8L883.56-16.95 883.56-19Q883.56-25.1 878.36-25.1L878.36-25.1Q877.51-25.1 876.91-24.95 876.31-24.8 875.91-24.45 875.51-24.1 875.19-23.45 874.86-22.8 874.56-21.85L874.56-21.85Q874.01-20.4 873.49-19.93 872.96-19.45 871.96-19.45L871.96-19.45Q869.46-19.45 869.46-21.95L869.46-21.95Q869.46-24.35 872.01-25.68 874.56-27 879.26-27L879.26-27Q884.26-27 886.36-25.23 888.46-23.45 888.46-19.2L888.46-19.2 888.46-8Q888.46-2.3 890.71-2.3L890.71-2.3Q891.41-2.3 892.06-2.48 892.71-2.65 893.16-3.4L893.16-3.4 893.86-2.2Q893.26-1.05 891.66-0.28 890.06 0.5 888.31 0.5L888.31 0.5Q886.11 0.5 885.04-0.9 883.96-2.3 883.96-4.85L883.96-4.85 883.71-4.85Q882.41-2.4 880.11-0.98 877.81 0.45 875.01 0.45L875.01 0.45Q871.86 0.45 870.06-1.15 868.26-2.75 868.26-5.45L868.26-5.45Q868.26-6.65 868.69-7.75 869.11-8.85 870.06-9.85 871.01-10.85 872.56-11.83 874.11-12.8 876.36-13.8L876.36-13.8ZM904.91-9.65L904.91-7.95Q904.91-5.9 905.01-4.7 905.11-3.5 905.53-2.88 905.96-2.25 906.76-2.05 907.56-1.85 909.01-1.75L909.01-1.75 909.01 0 895.71 0 895.71-1.75Q897.16-1.8 898.01-2.02 898.86-2.25 899.31-2.85 899.76-3.45 899.88-4.58 900.01-5.7 900.01-7.6L900.01-7.6 900.01-13.45Q900.01-16.85 899.93-18.75 899.86-20.65 899.43-21.55 899.01-22.45 898.11-22.63 897.21-22.8 895.61-22.8L895.61-22.8 895.61-24.55 904.36-26.45 905.06-20.25 905.26-20.25Q905.91-21.75 906.88-23 907.86-24.25 909.01-25.13 910.16-26 911.41-26.5 912.66-27 913.96-27L913.96-27Q915.56-27 916.48-26.23 917.41-25.45 917.41-24.15L917.41-24.15Q917.41-22.95 916.66-22.28 915.91-21.6 914.51-21.6L914.51-21.6Q913.71-21.6 913.16-21.8 912.61-22 912.18-22.23 911.76-22.45 911.38-22.65 911.01-22.85 910.56-22.85L910.56-22.85Q909.21-22.85 907.86-21.13 906.51-19.4 905.76-16.75L905.76-16.75Q905.36-15.3 905.13-13.48 904.91-11.65 904.91-9.65L904.91-9.65ZM941.66-6.05L943.21-4.65Q938.96 0.5 932.66 0.5L932.66 0.5Q929.71 0.5 927.31-0.48 924.91-1.45 923.18-3.23 921.46-5 920.51-7.48 919.56-9.95 919.56-12.95L919.56-12.95Q919.56-16 920.56-18.6 921.56-21.2 923.38-23.05 925.21-24.9 927.73-25.95 930.26-27 933.26-27L933.26-27Q938.11-27 940.76-24.38 943.41-21.75 943.41-16.85L943.41-16.85Q943.41-16.15 943.13-16 942.86-15.85 941.86-15.85L941.86-15.85 925.41-15.85Q925.31-15.45 925.26-14.88 925.21-14.3 925.21-13.6L925.21-13.6Q925.21-11 925.83-8.88 926.46-6.75 927.63-5.25 928.81-3.75 930.43-2.93 932.06-2.1 934.06-2.1L934.06-2.1Q936.16-2.1 937.96-3.03 939.76-3.95 941.66-6.05L941.66-6.05ZM925.76-18.15L934.96-18.15Q935.96-18.15 936.56-18.2 937.16-18.25 937.46-18.4 937.76-18.55 937.86-18.82 937.96-19.1 937.96-19.55L937.96-19.55Q937.96-21.85 936.48-23.23 935.01-24.6 932.46-24.6L932.46-24.6Q927.06-24.6 925.76-18.15L925.76-18.15ZM969.55-14.9L969.55-10.45Q969.55-8.55 970.1-6.98 970.65-5.4 971.63-4.28 972.6-3.15 973.98-2.5 975.35-1.85 976.95-1.85L976.95-1.85Q978.7-1.85 980.13-2.65 981.55-3.45 982.58-4.93 983.6-6.4 984.18-8.47 984.75-10.55 984.75-13.1L984.75-13.1Q984.75-15.65 984.15-17.78 983.55-19.9 982.5-21.43 981.45-22.95 979.98-23.8 978.5-24.65 976.75-24.65L976.75-24.65Q974.7-24.65 973.1-23.68 971.5-22.7 970.65-20.95L970.65-20.95Q969.55-18.75 969.55-14.9L969.55-14.9ZM969.45-41.5L969.45-22.95 969.65-22.95Q971.25-25.05 973.18-26.03 975.1-27 977.65-27L977.65-27Q980.35-27 982.68-25.95 985-24.9 986.73-23.05 988.45-21.2 989.43-18.68 990.4-16.15 990.4-13.25L990.4-13.25Q990.4-10.3 989.4-7.78 988.4-5.25 986.68-3.4 984.95-1.55 982.6-0.5 980.25 0.55 977.5 0.55L977.5 0.55Q974.65 0.55 972.18-0.5 969.7-1.55 968.1-3.35L968.1-3.35 965.75 0 964.65 0 964.65-30.2Q964.65-35.25 964-36.65L964-36.65Q963.85-37 963.65-37.23 963.45-37.45 963.05-37.63 962.65-37.8 961.95-37.95 961.25-38.1 960.05-38.25L960.05-38.25 960.05-39.5 969.45-41.5ZM1017.35-6.05L1018.9-4.65Q1014.65 0.5 1008.35 0.5L1008.35 0.5Q1005.4 0.5 1003-0.48 1000.6-1.45 998.87-3.23 997.15-5 996.2-7.48 995.25-9.95 995.25-12.95L995.25-12.95Q995.25-16 996.25-18.6 997.25-21.2 999.07-23.05 1000.9-24.9 1003.42-25.95 1005.95-27 1008.95-27L1008.95-27Q1013.8-27 1016.45-24.38 1019.1-21.75 1019.1-16.85L1019.1-16.85Q1019.1-16.15 1018.82-16 1018.55-15.85 1017.55-15.85L1017.55-15.85 1001.1-15.85Q1001-15.45 1000.95-14.88 1000.9-14.3 1000.9-13.6L1000.9-13.6Q1000.9-11 1001.52-8.88 1002.15-6.75 1003.32-5.25 1004.5-3.75 1006.12-2.93 1007.75-2.1 1009.75-2.1L1009.75-2.1Q1011.85-2.1 1013.65-3.03 1015.45-3.95 1017.35-6.05L1017.35-6.05ZM1001.45-18.15L1010.65-18.15Q1011.65-18.15 1012.25-18.2 1012.85-18.25 1013.15-18.4 1013.45-18.55 1013.55-18.82 1013.65-19.1 1013.65-19.55L1013.65-19.55Q1013.65-21.85 1012.17-23.23 1010.7-24.6 1008.15-24.6L1008.15-24.6Q1002.75-24.6 1001.45-18.15L1001.45-18.15ZM1026.45-23.35L1023.45-23.35 1023.45-25.2Q1026.1-26.75 1027.6-28.3 1029.1-29.85 1029.9-32L1029.9-32 1031.35-32 1031.35-25.7 1038.05-25.7 1038.05-23.35 1031.35-23.35 1031.35-8.15Q1031.35-6.4 1031.52-5.2 1031.7-4 1032.1-3.28 1032.5-2.55 1033.15-2.25 1033.8-1.95 1034.8-1.95L1034.8-1.95Q1036.05-1.95 1036.92-2.48 1037.8-3 1038.65-4.25L1038.65-4.25 1039.9-3.3Q1039.2-1.45 1037.47-0.48 1035.75 0.5 1033.2 0.5L1033.2 0.5Q1029.9 0.5 1028.17-1.07 1026.45-2.65 1026.45-5.6L1026.45-5.6 1026.45-23.35ZM1045.34-23.35L1042.34-23.35 1042.34-25.2Q1044.99-26.75 1046.49-28.3 1047.99-29.85 1048.79-32L1048.79-32 1050.24-32 1050.24-25.7 1056.94-25.7 1056.94-23.35 1050.24-23.35 1050.24-8.15Q1050.24-6.4 1050.42-5.2 1050.59-4 1050.99-3.28 1051.39-2.55 1052.04-2.25 1052.69-1.95 1053.69-1.95L1053.69-1.95Q1054.94-1.95 1055.82-2.48 1056.69-3 1057.54-4.25L1057.54-4.25 1058.79-3.3Q1058.09-1.45 1056.37-0.48 1054.64 0.5 1052.09 0.5L1052.09 0.5Q1048.79 0.5 1047.07-1.07 1045.34-2.65 1045.34-5.6L1045.34-5.6 1045.34-23.35ZM1083.79-6.05L1085.34-4.65Q1081.09 0.5 1074.79 0.5L1074.79 0.5Q1071.84 0.5 1069.44-0.48 1067.04-1.45 1065.32-3.23 1063.59-5 1062.64-7.48 1061.69-9.95 1061.69-12.95L1061.69-12.95Q1061.69-16 1062.69-18.6 1063.69-21.2 1065.52-23.05 1067.34-24.9 1069.87-25.95 1072.39-27 1075.39-27L1075.39-27Q1080.24-27 1082.89-24.38 1085.54-21.75 1085.54-16.85L1085.54-16.85Q1085.54-16.15 1085.27-16 1084.99-15.85 1083.99-15.85L1083.99-15.85 1067.54-15.85Q1067.44-15.45 1067.39-14.88 1067.34-14.3 1067.34-13.6L1067.34-13.6Q1067.34-11 1067.97-8.88 1068.59-6.75 1069.77-5.25 1070.94-3.75 1072.57-2.93 1074.19-2.1 1076.19-2.1L1076.19-2.1Q1078.29-2.1 1080.09-3.03 1081.89-3.95 1083.79-6.05L1083.79-6.05ZM1067.89-18.15L1077.09-18.15Q1078.09-18.15 1078.69-18.2 1079.29-18.25 1079.59-18.4 1079.89-18.55 1079.99-18.82 1080.09-19.1 1080.09-19.55L1080.09-19.55Q1080.09-21.85 1078.62-23.23 1077.14-24.6 1074.59-24.6L1074.59-24.6Q1069.19-24.6 1067.89-18.15L1067.89-18.15ZM1098.99-9.65L1098.99-7.95Q1098.99-5.9 1099.09-4.7 1099.19-3.5 1099.61-2.88 1100.04-2.25 1100.84-2.05 1101.64-1.85 1103.09-1.75L1103.09-1.75 1103.09 0 1089.79 0 1089.79-1.75Q1091.24-1.8 1092.09-2.02 1092.94-2.25 1093.39-2.85 1093.84-3.45 1093.96-4.58 1094.09-5.7 1094.09-7.6L1094.09-7.6 1094.09-13.45Q1094.09-16.85 1094.01-18.75 1093.94-20.65 1093.51-21.55 1093.09-22.45 1092.19-22.63 1091.29-22.8 1089.69-22.8L1089.69-22.8 1089.69-24.55 1098.44-26.45 1099.14-20.25 1099.34-20.25Q1099.99-21.75 1100.96-23 1101.94-24.25 1103.09-25.13 1104.24-26 1105.49-26.5 1106.74-27 1108.04-27L1108.04-27Q1109.64-27 1110.56-26.23 1111.49-25.45 1111.49-24.15L1111.49-24.15Q1111.49-22.95 1110.74-22.28 1109.99-21.6 1108.59-21.6L1108.59-21.6Q1107.79-21.6 1107.24-21.8 1106.69-22 1106.26-22.23 1105.84-22.45 1105.46-22.65 1105.09-22.85 1104.64-22.85L1104.64-22.85Q1103.29-22.85 1101.94-21.13 1100.59-19.4 1099.84-16.75L1099.84-16.75Q1099.44-15.3 1099.21-13.48 1098.99-11.65 1098.99-9.65L1098.99-9.65ZM1113.19-2.75L1113.19-2.75Q1113.19-4.15 1114.14-5.1 1115.09-6.05 1116.44-6.05L1116.44-6.05Q1117.84-6.05 1118.79-5.1 1119.74-4.15 1119.74-2.75L1119.74-2.75Q1119.74-1.4 1118.79-0.45 1117.84 0.5 1116.44 0.5L1116.44 0.5Q1115.09 0.5 1114.14-0.45 1113.19-1.4 1113.19-2.75ZM1123.83-28.2L1122.38-28.2Q1122.18-29.6 1121.91-31.25 1121.63-32.9 1121.36-34.45 1121.08-36 1120.91-37.23 1120.73-38.45 1120.73-39.05L1120.73-39.05Q1120.73-40.1 1121.41-40.8 1122.08-41.5 1123.08-41.5L1123.08-41.5Q1124.08-41.5 1124.76-40.8 1125.43-40.1 1125.43-39L1125.43-39Q1125.43-38.4 1125.26-37.15 1125.08-35.9 1124.83-34.4 1124.58-32.9 1124.31-31.25 1124.03-29.6 1123.83-28.2L1123.83-28.2ZM1131.43-28.2L1129.98-28.2Q1129.78-29.6 1129.51-31.25 1129.23-32.9 1128.96-34.45 1128.68-36 1128.51-37.23 1128.33-38.45 1128.33-39.05L1128.33-39.05Q1128.33-40.1 1129.01-40.8 1129.68-41.5 1130.68-41.5L1130.68-41.5Q1131.68-41.5 1132.36-40.8 1133.03-40.1 1133.03-39L1133.03-39Q1133.03-38.4 1132.86-37.15 1132.68-35.9 1132.43-34.4 1132.18-32.9 1131.91-31.25 1131.63-29.6 1131.43-28.2L1131.43-28.2Z" opacity="1" transform="matrix(1,0,0,1,0,0)" fill="#130912" class="slogan-text-1" data-fill-palette-color="secondary" id="text-1"></path></svg></g></svg></g></svg></g></svg></g><g transform="matrix(1,0,0,1,79.03607738695447,0)"><svg viewBox="0 0 33.92784522609105 40.339790864555816" height="40.339790864555816" width="33.92784522609105"><g><svg xmlns="http://www.w3.org/2000/svg" xmlns:xlink="http://www.w3.org/1999/xlink" version="1.1" x="0" y="0" viewBox="7.947 0 84.106 100.001" enable-background="new 0 0 100 100" xml:space="preserve" width="33.92784522609105" height="40.339790864555816" class="icon-icon-0" data-fill-palette-color="accent" id="icon-0"><path d="M88.08 0H26.754C17.876 0 7.947 7.831 7.947 18.31v77.696c0 2.194 1.778 3.973 3.972 3.974 0 0 58.666 0.021 63.357 0.021 2.194 0 3.974-1.779 3.974-3.974 0-3.581 3.522-8.995 8.83-8.995 2.194 0 3.973-1.779 3.973-3.974V3.974C92.053 1.779 90.274 0 88.08 0zM13.907 18.461h59.464V94.04c-9.868-0.003-50.039-0.018-59.464-0.021V18.461zM86.093 81.211c-0.846 0.121-1.654 0.322-2.428 0.585V10.265c0-1.097-0.889-1.987-1.986-1.987H24.834c-1.097 0-1.986 0.89-1.986 1.987s0.889 1.987 1.986 1.987h54.857v71.673c-0.93 0.704-1.769 1.504-2.509 2.375V16.556c0-1.052-0.854-1.905-1.906-1.905H14.564c1.858-5.099 7.344-8.691 12.19-8.691h59.339V81.211z" fill="#e77917" data-fill-palette-color="accent"></path></svg></g></svg></g><g></g></svg></g></svg></g></svg></g></svg></g><defs></defs></svg><rect width="320" height="360" fill="none" stroke="none" visibility="hidden"></rect></g></svg></g></svg>